<svg height="512" viewBox="0 0 512 512" width="512" xmlns="http://www.w3.org/2000/svg"><g id="Flat"><path d="m488 360v80a32.01353 32.01353 0 0 1 -31.04 31.99023h-.01c-.32012.00977-.62993.00977-.95.00977h-248a31.99649 31.99649 0 0 1 -32-32v-80a31.9528 31.9528 0 0 1 32-32h248c.32007 0 .64014 0 .96.00977a32.01353 32.01353 0 0 1 31.04 31.99023z" fill="#68737f"/><path d="m367.21 328a158.14463 158.14463 0 0 1 -12.54 48 153.67977 153.67977 0 0 1 -8.08984 16 155.45647 155.45647 0 0 1 -10.59016 16 157.21561 157.21561 0 0 1 -13.73 16c-.36987.37988-.74.75977-1.11987 1.14014a159.53839 159.53839 0 0 1 -113.14013 46.85986 31.99649 31.99649 0 0 1 -32-32v-80a31.9528 31.9528 0 0 1 32-32z" fill="#4f5761"/><path d="m176 376h312v16h-312z" fill="#4f5761"/><path d="m176 408h312v16h-312z" fill="#4f5761"/><path d="m354.66992 376a153.67977 153.67977 0 0 1 -8.08984 16h-170.58008v-16z" fill="#3e454d"/><path d="m335.99 408a157.21561 157.21561 0 0 1 -13.73 16h-146.26v-16z" fill="#3e454d"/><path d="m488 424v16a32.01316 32.01316 0 0 1 -31.04 31.99h-.01c-.32007.01-.62988.01-.95.01h-248a31.99649 31.99649 0 0 1 -32-32v-16a31.9515 31.9515 0 0 0 32 32h248c.32007 0 .62988 0 .95-.01h.01a32.01316 32.01316 0 0 0 31.04-31.99z" fill="#4f5761"/><path d="m215.15991 356.41992-14.31982 7.16016-13.86011-27.71a31.84823 31.84823 0 0 1 14.32007-7.17008z" fill="#3e454d"/><path d="m247.16 356.42-14.32 7.16-17.79-35.58h17.9z" fill="#3e454d"/><path d="m279.16 356.42-14.32 7.16-17.79-35.58h17.9z" fill="#3e454d"/><path d="m311.16 356.42-14.32 7.16-17.79-35.58h17.9z" fill="#3e454d"/><path d="m343.16 356.42-14.32 7.16-17.79-35.58h17.9z" fill="#3e454d"/><path d="m375.16 356.42-14.32 7.16-17.79-35.58h17.9z" fill="#3e454d"/><path d="m407.16 356.42-14.32 7.16-17.79-35.58h17.9z" fill="#4f5761"/><path d="m439.16 356.42-14.32 7.16-17.79-35.58h17.9z" fill="#4f5761"/><path d="m471.15991 356.41992-14.31982 7.16016-17.79004-35.58008h16.94995c.32007 0 .64014 0 .96.01z" fill="#4f5761"/><path d="m215.15991 443.58008-6.20991 12.41992-7.6499 15.30005a31.84823 31.84823 0 0 1 -14.3201-7.17017l5.95-11.88989 7.91016-15.82007z" fill="#3e454d"/><path d="m247.16 443.58-6.21 12.42-8 16h-17.9l8-16 9.79-19.58z" fill="#3e454d"/><path d="m279.16 443.58-6.21 12.42-8 16h-17.9l8-16 9.79-19.58z" fill="#3e454d"/><path d="m311.16 443.58-6.21 12.42-8 16h-17.9l8-16 9.79-19.58z" fill="#3e454d"/><path d="m343.16 443.58-6.21 12.42-8 16h-17.9l8-16 9.79-19.58z" fill="#4f5761"/><path d="m375.16 443.58-6.21 12.42-8 16h-17.9l8-16 9.79-19.58z" fill="#4f5761"/><path d="m407.16 443.58-6.21 12.42-8 16h-17.9l8-16 9.79-19.58z" fill="#4f5761"/><path d="m439.16 443.58-6.21 12.42-8 16h-17.9l8-16 9.79-19.58z" fill="#4f5761"/><path d="m471.15991 443.58008-5.45991 10.91992-8.74 17.49h-.01c-.32007.01-.62988.01-.95.01h-16.94995l8-16 9.79-19.58008z" fill="#4f5761"/><path d="m287.05 456h17.9l-8 16h-17.9z" fill="#3e454d"/><path d="m319.05 456h17.9l-8 16h-17.9z" fill="#3e454d"/><path d="m351.05 456h17.9l-8 16h-17.9z" fill="#3e454d"/><path d="m383.05 456h17.9l-8 16h-17.9z" fill="#3e454d"/><path d="m415.05 456h17.9l-8 16h-17.9z" fill="#3e454d"/><path d="m465.7 454.5-8.74 17.49h-.01c-.32007.01-.62988.01-.95.01h-16.94995l8-16h8.94995c.32007 0 .62988 0 .95-.01h.01a31.56852 31.56852 0 0 0 8.74-1.49z" fill="#3e454d"/><path d="m448 216v80a32.01353 32.01353 0 0 1 -31.04 31.99023h-.01c-.32012.00977-.62993.00977-.95.00977h-248a31.99649 31.99649 0 0 1 -32-32v-80a31.9515 31.9515 0 0 1 32-32h248c.32007 0 .64014 0 .96.01a32.01316 32.01316 0 0 1 31.04 31.99z" fill="#68737f"/><path d="m368 312q0 8.09985-.79 16h-199.21a31.99649 31.99649 0 0 1 -32-32v-80a31.9515 31.9515 0 0 1 32-32h136.01a160.58333 160.58333 0 0 1 50.67993 64 160.01639 160.01639 0 0 1 10.11011 32 160.65172 160.65172 0 0 1 3.19996 32z" fill="#4f5761"/><path d="m136 232h312v16h-312z" fill="#4f5761"/><path d="m136 264h312v16h-312z" fill="#4f5761"/><path d="m354.68994 248h-218.68994v-16h210.59009a159.85572 159.85572 0 0 1 8.09985 16z" fill="#3e454d"/><path d="m364.80005 280h-228.80005v-16h224.66992a155.00021 155.00021 0 0 1 4.13013 16z" fill="#3e454d"/><path d="m448 280v16a32.01316 32.01316 0 0 1 -31.04 31.99h-.01c-.32007.01-.62988.01-.95.01h-248a31.99649 31.99649 0 0 1 -32-32v-16a31.9515 31.9515 0 0 0 32 32h248c.32007 0 .62988 0 .95-.01h.01a32.01316 32.01316 0 0 0 31.04-31.99z" fill="#4f5761"/><path d="m175.15991 212.41992-14.31982 7.16016-13.86011-27.71a31.84823 31.84823 0 0 1 14.32007-7.17008z" fill="#3e454d"/><path d="m207.16 212.42-14.32 7.16-17.79-35.58h17.9z" fill="#3e454d"/><path d="m239.16 212.42-14.32 7.16-17.79-35.58h17.9z" fill="#3e454d"/><path d="m271.16 212.42-14.32 7.16-17.79-35.58h17.9z" fill="#3e454d"/><path d="m303.16 212.42-14.32 7.16-17.79-35.58h17.9z" fill="#3e454d"/><path d="m335.16 212.42-14.32 7.16-17.79-35.58h17.9z" fill="#3e454d"/><path d="m367.16 212.42-14.32 7.16-17.79-35.58h17.9z" fill="#4f5761"/><path d="m399.16 212.42-14.32 7.16-17.79-35.58h17.9z" fill="#4f5761"/><path d="m431.15991 212.41992-14.31982 7.16016-17.79004-35.58008h16.94995c.32007 0 .64014 0 .96.01z" fill="#4f5761"/><path d="m175.15991 299.58008-6.20991 12.41992-7.6499 15.30005a31.84823 31.84823 0 0 1 -14.3201-7.17017l5.95-11.88989 7.91016-15.82007z" fill="#3e454d"/><path d="m207.16 299.58-6.21 12.42-8 16h-17.9l8-16 9.79-19.58z" fill="#3e454d"/><path d="m239.16 299.58-6.21 12.42-8 16h-17.9l8-16 9.79-19.58z" fill="#3e454d"/><path d="m271.16 299.58-6.21 12.42-8 16h-17.9l8-16 9.79-19.58z" fill="#3e454d"/><path d="m303.16 299.58-6.21 12.42-8 16h-17.9l8-16 9.79-19.58z" fill="#3e454d"/><path d="m335.16 299.58-6.21 12.42-8 16h-17.9l8-16 9.79-19.58z" fill="#3e454d"/><path d="m367.16 299.58-6.21 12.42-8 16h-17.9l8-16 9.79-19.58z" fill="#3e454d"/><path d="m399.16 299.58-6.21 12.42-8 16h-17.9l8-16 9.79-19.58z" fill="#4f5761"/><path d="m431.15991 299.58008-5.45991 10.91992-8.74 17.49h-.01c-.32007.01-.62988.01-.95.01h-16.94995l8-16 9.79-19.58008z" fill="#4f5761"/><path d="m375.05 312h17.9l-8 16h-17.9z" fill="#3e454d"/><path d="m425.7 310.5-8.74 17.49h-.01c-.32007.01-.62988.01-.95.01h-16.94995l8-16h8.94995c.32007 0 .62988 0 .95-.01h.01a31.56852 31.56852 0 0 0 8.74-1.49z" fill="#3e454d"/><path d="m480 72v80a32.01316 32.01316 0 0 1 -31.04 31.99h-.01c-.32007.01-.62988.01-.95.01h-248a31.99649 31.99649 0 0 1 -32-32v-80a31.9515 31.9515 0 0 1 32-32h248c.32007 0 .64014 0 .96.01a32.01316 32.01316 0 0 1 31.04 31.99z" fill="#68737f"/><path d="m304.01 184h-104.01a31.99649 31.99649 0 0 1 -32-32h40a159.30061 159.30061 0 0 1 96.01 32z" fill="#4f5761"/><path d="m168 88h312v16h-312z" fill="#4f5761"/><path d="m168 120h312v16h-312z" fill="#4f5761"/><path d="m480 136v16a32.01316 32.01316 0 0 1 -31.04 31.99h-.01c-.32007.01-.62988.01-.95.01h-248a31.99649 31.99649 0 0 1 -32-32v-16a31.9515 31.9515 0 0 0 32 32h248c.32007 0 .62988 0 .95-.01h.01a32.01316 32.01316 0 0 0 31.04-31.99z" fill="#4f5761"/><path d="m207.15991 68.41992-14.31982 7.16016-13.86009-27.70996a31.84823 31.84823 0 0 1 14.32005-7.17012z" fill="#4f5761"/><path d="m239.16 68.42-14.32 7.16-17.79-35.58h17.9z" fill="#4f5761"/><path d="m271.16 68.42-14.32 7.16-17.79-35.58h17.9z" fill="#4f5761"/><path d="m303.16 68.42-14.32 7.16-17.79-35.58h17.9z" fill="#4f5761"/><path d="m335.16 68.42-14.32 7.16-17.79-35.58h17.9z" fill="#4f5761"/><path d="m367.16 68.42-14.32 7.16-17.79-35.58h17.9z" fill="#4f5761"/><path d="m399.16 68.42-14.32 7.16-17.79-35.58h17.9z" fill="#4f5761"/><path d="m431.16 68.42-14.32 7.16-17.79-35.58h17.9z" fill="#4f5761"/><path d="m463.15991 68.41992-14.31982 7.16016-17.79004-35.58008h16.94995c.32007 0 .64014 0 .96.01z" fill="#4f5761"/><path d="m207.15991 155.58008-6.20991 12.41992-7.6499 15.30005a31.84823 31.84823 0 0 1 -14.3201-7.17017l5.95-11.88989 7.91016-15.82007z" fill="#3e454d"/><path d="m239.16 155.58-6.21 12.42-8 16h-17.9l8-16 9.79-19.58z" fill="#3e454d"/><path d="m271.16 155.58-6.21 12.42-8 16h-17.9l8-16 9.79-19.58z" fill="#3e454d"/><path d="m303.16 155.58-6.21 12.42-8 16h-17.9l8-16 9.79-19.58z" fill="#4f5761"/><path d="m335.16 155.58-6.21 12.42-8 16h-17.9l8-16 9.79-19.58z" fill="#4f5761"/><path d="m367.16 155.58-6.21 12.42-8 16h-17.9l8-16 9.79-19.58z" fill="#4f5761"/><path d="m399.16 155.58-6.21 12.42-8 16h-17.9l8-16 9.79-19.58z" fill="#4f5761"/><path d="m431.16 155.58-6.21 12.42-8 16h-17.9l8-16 9.79-19.58z" fill="#4f5761"/><path d="m463.15991 155.58008-5.45991 10.91992-8.74 17.49h-.01c-.32007.01-.62988.01-.95.01h-16.94995l8-16 9.79-19.58008z" fill="#4f5761"/><path d="m279.05 168h17.9l-8 16h-17.9z" fill="#3e454d"/><path d="m311.05 168h17.9l-8 16h-17.9z" fill="#3e454d"/><path d="m343.05 168h17.9l-8 16h-17.9z" fill="#3e454d"/><path d="m375.05 168h17.9l-8 16h-17.9z" fill="#3e454d"/><path d="m407.05 168h17.9l-8 16h-17.9z" fill="#3e454d"/><path d="m457.7 166.5-8.74 17.49h-.01c-.32007.01-.62988.01-.95.01h-16.94995l8-16h8.94995c.32007 0 .62988 0 .95-.01h.01a31.56852 31.56852 0 0 0 8.74-1.49z" fill="#3e454d"/><path d="m261.40991 306.6001a91.9412 91.9412 0 0 0 -49.51 14.46972 92.11141 92.11141 0 0 0 33.52 42.18018c10.58008 16.75014.27222 24.87486-5.04278 28.74986s-16.81242 9.66681-26.61713-5.72986a91.8291 91.8291 0 0 0 -29.76-44.93016 91.84077 91.84077 0 0 0 -29.76 44.93016c-11.65088 18.73-23.97043 10.011-29.24 6.19-5.38129-3.90207-15.00014-16.46-2.41992-29.21a91.9987 91.9987 0 0 0 33.52-42.18018 91.84872 91.84872 0 0 0 -51.92017-14.42968c-20.94991-2.64014-18.39656-23.60061-16.34655-29.83938s15.70664-14.68076 28.43664-7.38084a91.98225 91.98225 0 0 0 50.48 18.83985 91.85684 91.85684 0 0 0 -2.33008-53.83985c-.75325-18.58633 16.0888-27.07161 22.84881-27.07161 6.75 0 19.48354 12.31836 16.30134 27.07161a91.907 91.907 0 0 0 -2.32007 53.83985 91.89811 91.89811 0 0 0 50.48-18.83985c12.73-7.29992 26.39124 1.19777 28.43666 7.38054 2.07881 6.28377 4.60334 27.19954-16.34659 29.83968-.80007-.03028-1.61007-.04004-2.41016-.04004z" fill="#d4e4f0"/><path d="m343.80005 304a158.57534 158.57534 0 0 0 -7.48-41.1001 158.05237 158.05237 0 0 0 -9.90013-23.8899 160.77764 160.77764 0 0 0 -69.42992-69.42992 159.65475 159.65475 0 0 0 -39.35-14.04 160.08129 160.08129 0 0 0 -25.64-3.34008q-3.975-.19482-8-.2-4.0199 0-8 .2a158.57586 158.57586 0 0 0 -41.1 7.48 158.0122 158.0122 0 0 0 -23.89 9.90015 160.7739 160.7739 0 0 0 -69.42992 69.42985 159.65233 159.65233 0 0 0 -14.04 39.34985 160.09845 160.09845 0 0 0 -3.34008 25.64015q-.19482 3.97485-.2 8 0 4.0199.2 8a158.57534 158.57534 0 0 0 7.48 41.1001 158.06537 158.06537 0 0 0 9.90015 23.89013 160.77834 160.77834 0 0 0 69.42985 69.42969 159.68381 159.68381 0 0 0 39.35 14.04 160.02559 160.02559 0 0 0 25.64 3.33988q3.975.19557 8 .2002 4.0199 0 8-.2002a158.54642 158.54642 0 0 0 41.1-7.48 158.01115 158.01115 0 0 0 23.89-9.8999 160.78244 160.78244 0 0 0 69.42993-69.42969 159.65749 159.65749 0 0 0 14.04-39.35009 160.09845 160.09845 0 0 0 3.34012-25.64012q.19482-3.97485.2-8-.00005-4.0199-.2-8zm-159.80005 88a80 80 0 1 1 80-80 80.00365 80.00365 0 0 1 -80 80z" fill="#68737f"/><g fill="#4f5761"><circle cx="184" cy="312" r="8"/><path d="m192 152.2v23.8h-16v-23.8q3.975-.19482 8-.2 4.0199 0 8 .2z"/><path d="m156.53 178.56006-15.46 4.13989-6.17-23.02a159.00318 159.00318 0 0 1 15.46-4.13995z"/><path d="m122.92993 190.22-13.85986 8-11.91016-20.6199a159.72915 159.72915 0 0 1 13.8501-8.02z"/><path d="m93.49 210.17993-11.31007 11.31007-16.82993-16.83009a158.75272 158.75272 0 0 1 11.30991-11.30981z"/><path d="m70.22 237.07007-8 13.85986-20.63992-11.91993a159.741 159.741 0 0 1 8.01992-13.85009z"/><path d="m54.71 269.07007-4.1499 15.46-23.02-6.17017a159.0313 159.0313 0 0 1 4.13989-15.46z"/><path d="m48 304v16h-23.8q-.19482-3.97485-.2-8 0-4.0199.2-8z"/><path d="m54.71 354.92993-23.03 6.17017a159.0313 159.0313 0 0 1 -4.13989-15.46l23.02-6.17017z"/><path d="m70.22 386.93018-20.62 11.90966a159.731 159.731 0 0 1 -8.0199-13.84961l20.6399-11.92016z"/><path d="m93.49 413.81982-16.83009 16.83008a158.80839 158.80839 0 0 1 -11.30991-11.31006l16.82995-16.83007z"/><path d="m122.92993 433.77979-11.91993 20.64013a159.85571 159.85571 0 0 1 -13.8501-8.02l11.91016-20.62011z"/><path d="m156.53 445.43994-6.17 23.02a158.86153 158.86153 0 0 1 -15.46-4.14014l6.17-23.02z"/><path d="m192 448v23.7998q-3.975.19557-8 .2002-4.0199 0-8-.2002v-23.7998z"/><path d="m233.1 464.31982a158.86153 158.86153 0 0 1 -15.46 4.14018l-6.17-23.02 15.46-4.14014z"/><path d="m270.84009 446.3999a159.85571 159.85571 0 0 1 -13.8501 8.02l-11.91992-20.64013 13.85986-8z"/><path d="m302.65 419.33984a158.80839 158.80839 0 0 1 -11.30993 11.31006l-16.83007-16.83008 11.31006-11.31z"/><path d="m326.41992 384.99023a159.731 159.731 0 0 1 -8.01992 13.84961l-20.62-11.90966 8-13.86011z"/><path d="m340.46 345.64014a159.0313 159.0313 0 0 1 -4.13989 15.46l-23.03-6.17017 4.1499-15.46z"/><path d="m344 312q0 4.0199-.2 8h-23.8v-16h23.80005q.19482 3.97485.19995 8z"/><path d="m340.46 278.35986-23.02 6.17017-4.1499-15.46 23.03-6.17017a159.0313 159.0313 0 0 1 4.1399 15.46z"/><path d="m326.41992 239.01-20.63992 11.91993-8-13.85986 20.62-11.91016a159.741 159.741 0 0 1 8.01992 13.85009z"/><path d="m302.65 204.65991-16.82993 16.83009-11.31007-11.31007 16.83008-16.82983a158.75272 158.75272 0 0 1 11.30992 11.30981z"/><path d="m270.84009 177.6001-11.91016 20.6199-13.85986-8 11.91993-20.63992a159.72915 159.72915 0 0 1 13.85009 8.02002z"/><path d="m233.1 159.67993-6.17 23.02-15.46-4.13989 6.17-23.02a159.00318 159.00318 0 0 1 15.46 4.13989z"/><path d="m184 432a119.97709 119.97709 0 0 1 -107.96484-67.583l14.38964-6.99414a103.98372 103.98372 0 0 0 93.5752 58.57714z"/><path d="m277.5752 266.57715a103.98372 103.98372 0 0 0 -93.5752-58.57715v-16a119.97709 119.97709 0 0 1 107.96484 67.583z"/><path d="m80 312h-16a119.97938 119.97938 0 0 1 67.583-107.96484l6.99414 14.39062a103.97855 103.97855 0 0 0 -58.57714 93.57422z"/><path d="m236.417 419.96484-6.99414-14.39062a103.97855 103.97855 0 0 0 58.57714-93.57422h16a119.97938 119.97938 0 0 1 -67.583 107.96484z"/></g></g></svg>